<svg width="18" height="14" viewBox="0 0 18 14" fill="none" xmlns="http://www.w3.org/2000/svg">
<path id="import_contacts" d="M4.41663 10.5802C5.10681 10.5802 5.77828 10.6585 6.43106 10.815C7.08384 10.9715 7.73181 11.217 8.37498 11.5514V3.35905C7.78951 2.97765 7.15596 2.69159 6.47433 2.50089C5.79271 2.31018 5.10681 2.21482 4.41663 2.21482C3.91663 2.21482 3.44948 2.25408 3.01519 2.33259C2.5809 2.41112 2.13458 2.53959 1.67625 2.71801C1.61214 2.73939 1.56673 2.77011 1.54002 2.81018C1.51331 2.85025 1.49996 2.89432 1.49996 2.94239V10.8238C1.49996 10.8986 1.52667 10.9533 1.58008 10.9881C1.63351 11.0228 1.69228 11.0268 1.7564 11.0001C2.15169 10.8655 2.56888 10.7618 3.00798 10.6892C3.44708 10.6165 3.91663 10.5802 4.41663 10.5802ZM9.62494 11.5514C10.2681 11.217 10.9161 10.9715 11.5689 10.815C12.2216 10.6585 12.8931 10.5802 13.5833 10.5802C14.0833 10.5802 14.5528 10.6165 14.9919 10.6892C15.431 10.7618 15.8482 10.8655 16.2435 11.0001C16.3076 11.0268 16.3664 11.0228 16.4198 10.9881C16.4732 10.9533 16.5 10.8986 16.5 10.8238V2.94239C16.5 2.89432 16.4866 2.85158 16.4599 2.81418C16.4332 2.77677 16.3878 2.74472 16.3237 2.71801C15.8653 2.53959 15.419 2.41112 14.9847 2.33259C14.5504 2.25408 14.0833 2.21482 13.5833 2.21482C12.8931 2.21482 12.2072 2.31018 11.5256 2.50089C10.844 2.69159 10.2104 2.97765 9.62494 3.35905V11.5514ZM8.99996 13.0353C8.83757 13.0353 8.6856 13.015 8.54404 12.9744C8.40249 12.9338 8.26867 12.8799 8.1426 12.8126C7.56888 12.4878 6.96872 12.2428 6.3421 12.0778C5.71551 11.9127 5.07368 11.8302 4.41663 11.8302C3.90808 11.8302 3.40863 11.8865 2.91825 11.9992C2.42786 12.1119 1.9551 12.2778 1.49998 12.4968C1.20298 12.6336 0.920396 12.6119 0.652229 12.4319C0.384076 12.2519 0.25 11.9968 0.25 11.6667V2.61868C0.25 2.43919 0.296201 2.27066 0.388604 2.11307C0.481021 1.95549 0.614306 1.84198 0.788458 1.77253C1.35256 1.49796 1.94042 1.2947 2.55206 1.16276C3.1637 1.03082 3.78522 0.964844 4.41663 0.964844C5.22753 0.964844 6.01973 1.07569 6.79323 1.29739C7.56673 1.51907 8.30231 1.84625 8.99996 2.27895C9.69761 1.84625 10.4332 1.51907 11.2067 1.29739C11.9802 1.07569 12.7724 0.964844 13.5833 0.964844C14.2147 0.964844 14.8362 1.03082 15.4479 1.16276C16.0595 1.2947 16.6474 1.49796 17.2115 1.77253C17.3856 1.84198 17.5189 1.95549 17.6113 2.11307C17.7037 2.27066 17.7499 2.43919 17.7499 2.61868V11.6667C17.7499 11.9968 17.6105 12.2492 17.3317 12.4239C17.0528 12.5986 16.7595 12.6176 16.4519 12.4808C16.0021 12.2671 15.536 12.1053 15.0536 11.9952C14.5713 11.8852 14.0812 11.8302 13.5833 11.8302C12.9262 11.8302 12.2844 11.9127 11.6578 12.0778C11.0312 12.2428 10.431 12.4878 9.85731 12.8126C9.73124 12.8799 9.59743 12.9338 9.45588 12.9744C9.31432 13.015 9.16235 13.0353 8.99996 13.0353Z" fill="#666666"/>
</svg>
