<svg width="20" height="26" viewBox="0 0 20 26" fill="none" xmlns="http://www.w3.org/2000/svg">
<path id="hourglass_empty" d="M4.87146 23.6666H15.1279V19.6666C15.1279 18.1828 14.6356 16.8973 13.6509 15.8101C12.6663 14.7229 11.4492 14.1794 9.99966 14.1794C8.55009 14.1794 7.333 14.7229 6.3484 15.8101C5.36377 16.8973 4.87146 18.1828 4.87146 19.6666V23.6666ZM9.99966 11.8204C11.4492 11.8204 12.6663 11.2768 13.6509 10.1897C14.6356 9.10245 15.1279 7.81697 15.1279 6.33322V2.33322H4.87146V6.33322C4.87146 7.81697 5.36377 9.10245 6.3484 10.1897C7.333 11.2768 8.55009 11.8204 9.99966 11.8204ZM0.12793 25.6665V23.6666H2.87153V19.6666C2.87153 18.217 3.24375 16.8849 3.9882 15.6704C4.73264 14.4559 5.74846 13.5657 7.03566 12.9999C5.74846 12.4341 4.73264 11.5439 3.9882 10.3294C3.24375 9.11485 2.87153 7.7828 2.87153 6.33322V2.33322H0.12793V0.333252H19.8714V2.33322H17.1278V6.33322C17.1278 7.7828 16.7556 9.11485 16.0111 10.3294C15.2667 11.5439 14.2509 12.4341 12.9637 12.9999C14.2509 13.5657 15.2667 14.4559 16.0111 15.6704C16.7556 16.8849 17.1278 18.217 17.1278 19.6666V23.6666H19.8714V25.6665H0.12793Z" fill="#F2F2F2"/>
</svg>
