<svg width="20" height="20" viewBox="0 0 20 20" fill="none" xmlns="http://www.w3.org/2000/svg">
<path id="person" d="M9.99997 9.58958C8.71666 9.58958 7.61806 9.13265 6.70417 8.21878C5.79028 7.30489 5.33333 6.20629 5.33333 4.92298C5.33333 3.63965 5.79028 2.54105 6.70417 1.62718C7.61806 0.713292 8.71666 0.256348 9.99997 0.256348C11.2833 0.256348 12.3819 0.713292 13.2958 1.62718C14.2097 2.54105 14.6666 3.63965 14.6666 4.92298C14.6666 6.20629 14.2097 7.30489 13.2958 8.21878C12.3819 9.13265 11.2833 9.58958 9.99997 9.58958ZM0 19.7434V16.7793C0 16.1264 0.177355 15.5217 0.532066 14.9653C0.886755 14.4089 1.36068 13.9811 1.95383 13.6819C3.27179 13.0358 4.60128 12.5512 5.9423 12.2281C7.28332 11.905 8.63588 11.7435 9.99997 11.7435C11.3641 11.7435 12.7166 11.905 14.0576 12.2281C15.3987 12.5512 16.7281 13.0358 18.0461 13.6819C18.6393 13.9811 19.1132 14.4089 19.4679 14.9653C19.8226 15.5217 19.9999 16.1264 19.9999 16.7793V19.7434H0ZM1.99997 17.7435H18V16.7793C18 16.5093 17.9218 16.2593 17.7653 16.0293C17.6089 15.7994 17.3965 15.6118 17.1282 15.4665C15.9795 14.9007 14.8081 14.4721 13.6142 14.1806C12.4203 13.8892 11.2156 13.7434 9.99997 13.7434C8.78437 13.7434 7.57961 13.8892 6.3857 14.1806C5.19179 14.4721 4.02048 14.9007 2.87177 15.4665C2.60339 15.6118 2.391 15.7994 2.2346 16.0293C2.07818 16.2593 1.99997 16.5093 1.99997 16.7793V17.7435ZM9.99997 7.58965C10.7333 7.58965 11.3611 7.32854 11.8833 6.80631C12.4055 6.28409 12.6666 5.65631 12.6666 4.92298C12.6666 4.18965 12.4055 3.56187 11.8833 3.03965C11.3611 2.51743 10.7333 2.25631 9.99997 2.25631C9.26663 2.25631 8.63886 2.51743 8.11663 3.03965C7.59441 3.56187 7.3333 4.18965 7.3333 4.92298C7.3333 5.65631 7.59441 6.28409 8.11663 6.80631C8.63886 7.32854 9.26663 7.58965 9.99997 7.58965Z" fill="#F2F2F2"/>
</svg>
