<svg width="18" height="24" viewBox="0 0 18 24" fill="none" xmlns="http://www.w3.org/2000/svg">
<path d="M0.500001 22.6667L0.500001 17.3333C0.500001 16.9556 0.64375 16.6389 0.93125 16.3833C1.21875 16.1278 1.575 16 2 16C2.425 16 2.78125 16.1278 3.06875 16.3833C3.35625 16.6389 3.5 16.9556 3.5 17.3333L3.5 22.6667C3.5 23.0444 3.35625 23.3611 3.06875 23.6167C2.78125 23.8722 2.425 24 2 24C1.575 24 1.21875 23.8722 0.93125 23.6167C0.64375 23.3611 0.500001 23.0444 0.500001 22.6667Z" fill="#487BFB"/>
<path d="M7.5 22.6667L7.5 9.33333C7.5 8.95555 7.64375 8.63889 7.93125 8.38333C8.21875 8.12778 8.575 8 9 8C9.425 8 9.78125 8.12778 10.0688 8.38333C10.3563 8.63889 10.5 8.95555 10.5 9.33333L10.5 22.6667C10.5 23.0444 10.3563 23.3611 10.0688 23.6167C9.78125 23.8722 9.425 24 9 24C8.575 24 8.21875 23.8722 7.93125 23.6167C7.64375 23.3611 7.5 23.0444 7.5 22.6667Z" fill="#487BFB"/>
<path d="M14.5 22L14.5 2C14.5 1.43333 14.6438 0.958332 14.9313 0.574999C15.2188 0.191666 15.575 -8.41444e-08 16 -6.55671e-08C16.425 -4.69897e-08 16.7813 0.191666 17.0688 0.574999C17.3563 0.958332 17.5 1.43333 17.5 2L17.5 22C17.5 22.5667 17.3563 23.0417 17.0688 23.425C16.7813 23.8083 16.425 24 16 24C15.575 24 15.2187 23.8083 14.9312 23.425C14.6437 23.0417 14.5 22.5667 14.5 22Z" fill="#487BFB"/>
</svg>
